<svg t="1691485947822" class="icon" viewBox="0 0 1026 1024" version="1.1" xmlns="http://www.w3.org/2000/svg" p-id="1241" width="16" height="16"><path d="M982.189 422.855l-329.773-329.772c-51.271-51.271-134.007-52.436-184.114-2.332l-5.829 5.829c-50.107 50.107-47.776 131.676 2.329 181.783l109.536 109.536-439.309-3.495c-26.801-1.165-51.271 6.992-72.247 20.975-13.984 9.322-25.636 20.975-34.958 34.958s-22.141 45.445-20.975 72.247c1.165 71.078 58.262 128.18099999 129.34600001 129.346l429.98699999 3.495-102.544 102.544c-51.271 51.271-48.942 132.842 1.165 182.947l2.329 2.332c50.107 50.107 132.842 51.271 182.947 1.165l330.939-330.939c50.107-50.107 50.107-131.67599999 1.165-180.619z" fill="#1296db" p-id="1242"></path></svg>